<svg width="76" height="60" viewBox="0 0 76 60" fill="none" xmlns="http://www.w3.org/2000/svg">
<path fill-rule="evenodd" clip-rule="evenodd" d="M47.6885 59.6665C46.8322 55.8451 41.9689 54.0058 38.1033 52.5272C36.506 51.9184 35.3448 50.636 34.6126 50.196C34.3208 50.02 34.3675 49.7113 34.6767 49.567C37.7284 49.0001 35.8335 45.7312 37.5387 44.2829C39.4234 42.6816 42.7828 42.2358 43.3007 42.1781C44.5566 42.0425 46.0941 44.0218 47.3938 46.0053C48.412 47.559 49.2858 49.1155 49.7628 49.6608C50.9414 50.9966 52.0676 53.3105 53.0974 54.6045C53.7465 55.421 56.4204 56.852 57.545 58.4591C57.7128 58.6985 57.5917 59.0318 57.3073 59.1111C54.5517 59.8757 51.045 59.9117 48.1232 59.9997C47.916 60.0069 47.7337 59.867 47.6885 59.6665ZM50.5272 48.4346C49.0057 46.3068 48.5068 46.1524 48.0182 43.2182C47.9759 42.9643 48.1713 42.7307 48.4324 42.7249C51.1311 42.66 54.613 40.8265 57.4721 39.6911C58.8929 39.13 64.3806 41.1251 65.813 41.0818C66.5234 41.063 70.7873 40.9895 71.4203 42.432C72.1497 44.0751 58.766 59.9521 50.5272 48.4346ZM28.0338 49.378C25.6094 49.1775 24.9311 48.3581 23.1558 46.9877C22.0807 46.1568 19.6491 44.4993 18.8001 43.6741C17.7454 42.6484 20.7358 37.246 21.0421 36.6199C21.8896 34.86 22.1362 33.1606 24.05 31.7555C30.4538 27.034 32.5645 29.3291 36.4053 27.4408C39.8435 25.7501 40.02 24.6162 42.4444 22.9789C43.5224 22.2518 47.1021 23.693 48.5331 23.2544C49.5688 22.9399 49.5031 20.0937 48.4339 20.3534C46.682 20.7775 40.8602 23.39 38.802 20.7429C35.7912 16.8826 43.0877 13.869 42.8164 12.5822C42.5553 11.3517 38.7436 13.3223 37.8626 14.9885C35.4367 19.5946 38.0274 24.2224 36.5716 25.7083C35.056 27.259 31.8979 26.8464 30.1139 27.0426C29.3393 27.1263 25.1192 29.068 24.2484 27.2359C23.7291 26.1526 25.3774 20.163 25.6808 19.446C27.7318 14.5773 36.239 16.8119 36.0538 9.65959C35.9954 7.42215 35.5316 7.28366 35.4076 7.29088C34.9904 7.31684 34.2523 7.95734 33.2341 9.12727C31.4223 11.2089 28.9236 14.7807 27.036 15.1024C23.5745 15.6953 19.0656 13.0482 17.2203 15.2813C16.3888 16.2911 15.5282 17.9472 15.7412 18.7377L16.3349 19.1734L16.9271 18.8964C17.7848 18.4175 19.2815 17.4567 20.8219 16.7426C22.5767 15.929 25.0507 15.4905 24.05 18.5358C21.045 27.699 23.3031 32.8187 15.9877 40.8091C10.3308 46.9935 0.456733 36.3732 1.62954 30.476C2.53686 25.9203 7.27477 31.5507 9.13463 33.1202L9.65248 33.4477L10.1178 32.6341C11.5109 28.1087 -5.63486 26.1829 1.94025 17.0412C2.57771 16.2796 3.35666 16.5955 3.80157 16.8249C6.46956 18.1939 4.46237 19.723 5.92254 21.4151C6.75547 22.3817 9.20028 21.8811 9.93985 22.9904C11.4905 25.3188 15.0089 29.7951 17.5704 27.0931C19.226 25.3476 14.7551 25.6852 13.3678 24.2888C12.1177 23.0337 12.1308 21.4209 11.0441 20.8612C7.94432 19.2715 4.28878 18.2242 6.64461 13.4031C8.27983 10.0606 16.0169 4.58893 20.04 5.06498C22.8334 5.39822 21.5614 10.3102 23.2273 9.99427C23.4271 9.95532 23.5497 9.80529 23.6737 9.41291C25.3176 4.19799 25.2549 4.69424 29.2474 1.64464C32.6929 -0.988067 40.7961 0.396806 44.8703 0.134257C48.5083 -0.0994407 50.7095 6.95043 50.0793 9.52831C49.8474 10.4703 49.0962 10.59 48.8657 11.809C48.7957 12.1552 48.8992 12.3009 48.9547 12.3269C49.2099 12.4207 50.4673 12.2995 50.7095 12.2101C54.5955 10.5626 50.6526 4.81397 51.2361 2.64145C52.2324 -1.07318 60.3312 5.39101 60.4464 5.48189C60.3662 5.41842 61.1349 6.21616 60.7863 5.92764C65.1595 9.57015 59.9417 12.7179 58.0585 14.7504C55.3555 17.6745 56.5196 27.4884 50.9969 27.5908C48.5521 27.6384 47.4143 27.4639 45.4056 28.3222C45.0978 28.4549 43.4786 30.9866 42.7391 31.2838C40.1105 32.3427 37.8363 32.0599 38.3323 33.6064C38.6109 34.4762 38.9858 34.2844 40.2913 34.4084C45.8636 34.9306 43.3138 31.907 47.8825 29.1041C51.3046 27.0066 53.8151 30.4082 56.6202 26.6906C58.5282 24.1705 57.2708 13.569 63.1232 11.3301C68.7494 9.17632 76.9168 27.2316 75.5193 30.401C74.7564 32.1277 72.8615 31.3574 71.7427 31.2001C68.6269 30.7674 68.3089 17.8938 64.3806 22.4076C63.3784 23.5574 67.368 26.2636 68.4125 28.0481C69.1841 29.3637 66.8998 30.1052 65.7693 30.3447L65.6818 30.3606L65.9822 30.4933C68.9405 31.6372 79.5746 33.2125 74.7725 38.1923C73.4903 39.5152 71.7223 40.0475 69.8974 39.9623C66.7349 39.8109 60.4377 38.0524 58.801 34.9177C58.0395 33.4722 59.0052 29.6523 57.7857 29.7792C55.5262 30.0158 58.8112 37.194 50.7839 39.619C50.1566 39.808 38.271 41.9733 38.0522 41.9228C36.9976 41.7064 34.7978 40.887 33.4864 40.5264L32.9598 40.4326L33.0182 40.5495C34.0043 42.3714 37.5037 48.6899 31.6645 49.3766C29.8717 49.5887 29.6879 49.5165 28.0338 49.378Z" fill="black"/>
</svg>
