<svg width="96" height="95" viewBox="0 0 96 95" fill="none" xmlns="http://www.w3.org/2000/svg">
<path d="M10.6 92.3H14.6C14.6 90.7618 15.2111 89.2865 16.2988 88.1988C17.3865 87.1111 18.8617 86.5 20.4 86.5C21.1202 86.4865 21.8353 86.6227 22.5 86.9L24.2 87.6L25 85.9C25.4664 85.0305 26.1581 84.3025 27.0026 83.7923C27.8471 83.2821 28.8134 83.0084 29.8 83C31.1552 82.9979 32.4597 83.5149 33.4455 84.4448C34.4312 85.3748 35.0233 86.647 35.1 88L35.3 90.7L37.8 89.8L39.2 89.6C40.3139 89.6 41.3822 90.0425 42.1699 90.8302C42.9575 91.6178 43.4 92.6861 43.4 93.8V94H47.4V93.7C47.4 91.5252 46.5361 89.4395 44.9983 87.9018C43.4605 86.364 41.3748 85.5 39.2 85.5H38.7C38.1031 83.6094 36.9176 81.959 35.3165 80.7897C33.7155 79.6204 31.7826 78.9933 29.8 79C28.3619 78.9881 26.9415 79.3173 25.6552 79.9604C24.3689 80.6036 23.2534 81.5424 22.4 82.7L20.4 82.5C19.5165 82.4791 18.6363 82.6146 17.8 82.9C17.1612 81.0711 15.9729 79.4842 14.3976 78.3565C12.8224 77.2288 10.9372 76.6153 9.00001 76.6C7.26096 76.5691 5.54878 77.0319 4.06203 77.9345C2.57527 78.8372 1.37486 80.1428 0.600006 81.7L4.20001 83.5C4.64881 82.6161 5.33653 81.8758 6.18502 81.3632C7.03352 80.8505 8.00877 80.5861 9.00001 80.6C10.1911 80.596 11.3475 81.001 12.2758 81.7472C13.2041 82.4935 13.8481 83.5359 14.1 84.7C13.0075 85.6432 12.1297 86.8095 11.526 88.1205C10.9222 89.4315 10.6065 90.8567 10.6 92.3V92.3Z" fill="black"/>
<path d="M86.1 86.1C87.4552 86.0979 88.7597 86.6149 89.7455 87.5448C90.7312 88.4748 91.3233 89.747 91.4 91.1L95.4 90.9C95.2719 88.5212 94.2358 86.2822 92.5054 84.6448C90.775 83.0075 88.4823 82.0966 86.1 82.1C83.7772 82.1029 81.536 82.9567 79.8 84.5C78.8355 82.9296 77.4818 81.635 75.87 80.7414C74.2582 79.8479 72.4429 79.3859 70.6 79.4C68.3939 79.4095 66.2417 80.082 64.4227 81.3303C62.6038 82.5786 61.2022 84.345 60.4 86.4C58.4577 86.6335 56.6116 87.3761 55.0486 88.5527C53.4857 89.7293 52.2615 91.298 51.5 93.1L55.2 94.6C55.7352 93.3197 56.6389 92.2274 57.7962 91.4618C58.9536 90.6962 60.3124 90.2918 61.7 90.3H63.5L63.8 88.7C64.0824 86.9539 65.0245 85.3829 66.4318 84.3115C67.8392 83.24 69.6042 82.75 71.3625 82.9425C73.1208 83.135 74.738 83.9954 75.8801 85.346C77.0223 86.6966 77.6022 88.4342 77.5 90.2C77.5066 90.8784 77.4054 91.5535 77.2 92.2L81 93.5C81.3678 92.4747 81.5375 91.3887 81.5 90.3C81.5163 89.798 81.4828 89.2955 81.4 88.8C81.8594 87.9613 82.5412 87.2656 83.3704 86.7892C84.1996 86.3129 85.1441 86.0744 86.1 86.1V86.1Z" fill="black"/>
<path d="M48.1 40C49.6625 40 51.1899 39.5367 52.489 38.6686C53.7882 37.8006 54.8007 36.5668 55.3987 35.1232C55.9966 33.6797 56.153 32.0913 55.8482 30.5588C55.5434 29.0264 54.791 27.6187 53.6862 26.5139C52.5813 25.409 51.1737 24.6566 49.6412 24.3518C48.1088 24.047 46.5203 24.2034 45.0768 24.8014C43.6333 25.3993 42.3995 26.4119 41.5314 27.711C40.6633 29.0102 40.2 30.5375 40.2 32.1C40.2 34.1952 41.0323 36.2046 42.5139 37.6862C43.9954 39.1677 46.0048 40 48.1 40V40ZM48.1 28.2C49.1344 28.2 50.1263 28.6109 50.8577 29.3423C51.5891 30.0737 52 31.0657 52 32.1C52 33.1344 51.5891 34.1263 50.8577 34.8577C50.1263 35.5891 49.1344 36 48.1 36C47.0657 36 46.0737 35.5891 45.3423 34.8577C44.6109 34.1263 44.2 33.1344 44.2 32.1C44.2 31.0657 44.6109 30.0737 45.3423 29.3423C46.0737 28.6109 47.0657 28.2 48.1 28.2V28.2Z" fill="black"/>
<path d="M69.8 59.7L71.1 58.2C72.4246 56.7744 73.4529 55.0999 74.1253 53.2738C74.7977 51.4476 75.1008 49.5062 75.0171 47.562C74.9334 45.6178 74.4645 43.7095 73.6376 41.948C72.8107 40.1864 71.6422 38.6065 70.2 37.3C68.4531 35.6466 66.3735 34.3852 64.1 33.6C63.7 21.8 58.8 10.8 49.5 1.60001L48.1 0.200012L46.7 1.60001C37.4 10.8 32.5 21.8 32.1 33.6C29.8469 34.3658 27.7959 35.6306 26.1 37.3C24.6509 38.5997 23.4743 40.1742 22.6386 41.9322C21.8028 43.6902 21.3246 45.5967 21.2316 47.541C21.1385 49.4853 21.4326 51.4288 22.0966 53.2585C22.7607 55.0883 23.7816 56.7679 25.1 58.2L26.4 59.7L35.1 51.9C36.421 55.6077 38.2016 59.1352 40.4 62.4C41.9 64.6 45.5 65.5 48.5 65.5H48.6C50.2 65.5 53.9 65.2 55.5 63C57.7989 59.5344 59.6787 55.8084 61.1 51.9L69.8 59.7ZM71 47.8C71.0916 49.9479 70.534 52.0736 69.4 53.9L62.8 48H63L62.5 47.4C62.8 46.4 63 45.5 63.2 44.5C63.6143 42.3204 63.8816 40.1155 64 37.9C65.2488 38.6119 66.4215 39.4496 67.5 40.4C69.5752 42.3246 70.8288 44.9749 71 47.8V47.8ZM48.1 5.90001C50.1 8.03621 51.9071 10.3452 53.5 12.8C51.7968 13.5434 49.9584 13.9271 48.1 13.9271C46.2416 13.9271 44.4032 13.5434 42.7 12.8C44.2929 10.3452 46.1 8.03621 48.1 5.90001V5.90001ZM40.7 16.3C43.0214 17.3639 45.5465 17.9098 48.1 17.9C50.6546 17.9196 53.1817 17.3732 55.5 16.3C59.8243 24.7422 61.1637 34.3996 59.3 43.7C59.1 44.4 59 45.1 58.8 45.9C55.5909 47.9041 51.8835 48.9667 48.1 48.9667C44.3165 48.9667 40.6091 47.9041 37.4 45.9C37.3 45.2 37.1 44.5 37 43.8C34.9567 34.4836 36.267 24.745 40.7 16.3V16.3ZM28.7 40.3C29.7785 39.3496 30.9512 38.5119 32.2 37.8C32.3028 40.0884 32.6039 42.3636 33.1 44.6C33.2042 45.5187 33.4053 46.4237 33.7 47.3L33.3 47.9H33.4L26.8 53.8C25.5527 51.6639 25.0617 49.1697 25.4065 46.7202C25.7512 44.2707 26.9115 42.0089 28.7 40.3V40.3ZM52.2 60.7C50.88 61.3939 49.3812 61.6727 47.9 61.5C45.5 61.3 44 60.6 43.7 60.2C41.8336 57.3823 40.2905 54.3632 39.1 51.2C41.9518 52.3882 45.0106 53 48.1 53C51.1894 53 54.2482 52.3882 57.1 51.2C55.8087 54.5317 54.1661 57.7164 52.2 60.7V60.7Z" fill="black"/>
<path d="M50.1 70.9H46.1V81.44H50.1V70.9Z" fill="black"/>
<path d="M59.4 68.1H55.4V76.77H59.4V68.1Z" fill="black"/>
<path d="M40.8 68.1H36.8V76.77H40.8V68.1Z" fill="black"/>
</svg>
