<svg width="70" height="90" viewBox="0 0 70 90" fill="none" xmlns="http://www.w3.org/2000/svg">
<path d="M25.6 89C20.7 86.1 17.2 81 17 75C16.7 63.8 24.5 58.3 29.1 50.8C35.7 40 33.9 33.3 33.9 33.3C33.9 33.3 39.4 36.4 42.6 47.9C43.6 51.3 43.8 54.7 43.5 57.9C43 66 39.5 73.3 39.5 73.3C39.5 73.3 45.6 72 47.3 60.9C50.1 63.8 52.7 68 53 72.4C53.5 80 49 87 42.2 90C54 87.3 62.4 77.3 65.3 70C69 60.8 68 52.6 67.4 45.5C66.6 35.8 70 28.6 70 28.6C70 28.6 63.5 30.5 58.7 38.4C56.5 42 55.6 47.3 55.6 47.3C55.6 47.3 56.1 42.6 53 34C49.9 25.6 47.1 22.6 45.4 16.4C43.2 8.1 48.1 0 48.1 0C48.1 0 28.7 3.6 19.9 20.5C12.1 35.5 15.3 44.5 15.3 44.5C15.3 44.5 12 41.4 10.3 37.1C8.6 32.8 9 28.9 9 28.9C9 28.9 -4.8 44.1 1.9 63.2C6.4 76.6 15.1 85.4 25.6 89Z" fill="black"/>
</svg>
