<svg width="82" height="62" viewBox="0 0 82 62" fill="none" xmlns="http://www.w3.org/2000/svg">
<path d="M60.8 54.7C59.5 54.7 58.2 54.3 57 53.6L43.3 44.6C42.3 43.9 42 42.5 42.7 41.5C43.4 40.5 44.8 40.2 45.8 40.9L59.4 49.9C60.3 50.5 61.6 50.4 62.5 49.6C63.4 48.8 64.8 48.8 65.7 49.8C66.5 50.7 66.5 52.1 65.5 53C64.2 54.1 62.5 54.7 60.8 54.7Z" fill="black"/>
<path d="M51.9 61.5C50.6 61.5 49.3 61.2 48.2 60.4L40.1 55.1C39.1 54.4 38.8 53 39.4 52C40.1 51 41.5 50.7 42.5 51.3L50.6 56.6C51.8 57.3 53.4 57 54.1 55.8C54.8 54.7 56.2 54.4 57.2 55.1C58.3 55.8 58.6 57.2 57.9 58.2C56.6 60.3 54.3 61.5 51.9 61.5Z" fill="black"/>
<path d="M69.7 47.7C67.7 47.7 65.4 47 62.8 45.4L50 36.9C49 36.2 48.7 34.8 49.4 33.8C50.1 32.8 51.5 32.5 52.5 33.2L65.2 41.7C67.1 42.8 70.5 44.5 72.3 42C73.4 40.4 73.2 38.2 72.5 37.6C71.5 36.8 71.3 35.4 72.1 34.4C72.9 33.4 74.3 33.2 75.3 34C78.1 36.2 78.5 41.1 76.1 44.5C74.7 46.3 72.6 47.7 69.7 47.7Z" fill="black"/>
<path d="M71 38C70.6 38 70.2 37.9 69.8 37.6L53.8 27.5C53.2 27.1 48.5 24.3 46.4 19.5C43.8 20.3 41.2 21.1 38.3 22.2L38 22.3C34.9 23.4 29 25.6 25.6 21.7C23.8 19.6 23.1 17.6 23.5 15.5C24.3 11.7 28.5 9.59998 31.9 7.89998C32.6 7.59998 33.2 7.29999 33.7 6.99999L34.4 6.6C36.9 5.2 39.5 3.7 41.9 2.1C47.3 -1.5 53.3 1.89999 53.6 1.99999C53.6 1.99999 53.7 2 53.7 2.1C53.7 2.1 58.8 5.39999 63.3 7.49999C66.3 8.89999 69.6 7.99999 73.2 6.99999C74 6.79999 74.7 6.59998 75.5 6.39998C76.7 6.09998 77.9 6.8 78.2 8.1C78.5 9.3 77.8 10.5 76.5 10.8C75.8 11 75.1 11.2 74.3 11.4C70.3 12.5 65.8 13.7 61.3 11.6C56.8 9.5 51.9 6.39998 51.2 5.89998C50.8 5.69998 47.2 3.89998 44.3 5.79998C41.8 7.49998 39.1 8.99999 36.5 10.4L35.9 10.8C35.3 11.1 34.6 11.5 33.9 11.8C31.6 12.9 28.2 14.6 27.9 16.3C27.7 17.1 28.4 18 29 18.7C30.3 20.2 34.3 18.8 36.4 18L36.7 17.9C40.5 16.5 43.9 15.4 47.2 14.5C47.8 14.3 48.4 14.4 49 14.7C49.5 15 49.9 15.5 50 16.1C51 20.6 56 23.4 56 23.5C56 23.5 56.1 23.5 56.1 23.6L71.3 33.2L79 31.1C80.2 30.8 81.4 31.5 81.8 32.7C82.1 33.9 81.4 35.1 80.2 35.5L71.6 37.9C71.4 38 71.2 38 71 38Z" fill="black"/>
<path d="M26.1 56.9C23.2 56.9 18.9 54.9 18.9 49.4V44.8C18.9 44.5 18.9 41.6 21 39.5C21.9 38.6 23.5 37.6 26 37.6C27.9 37.6 29.6 38.2 30.8 39.5C32.9 41.6 32.9 44.5 32.9 44.9V49.5C32.9 52.4 31.8 54.1 30.8 55C29.1 56.8 26.7 56.9 26.1 56.9ZM26.1 42.1C24.9 42.1 24.4 42.6 24.3 42.7C23.5 43.5 23.5 44.8 23.5 44.8V49.4C23.5 51.9 25.2 52.3 26.2 52.4C27.3 52.4 28.6 51.9 28.6 49.4V44.8C28.5 43.8 28.2 42.1 26.1 42.1Z" fill="black"/>
<path d="M16.6 50.8C16.5 50.8 16.5 50.8 16.6 50.8C13.7 50.8 9.39999 48.8 9.39999 43.3V41.6C9.39999 41.3 9.4 38.4 11.5 36.3C12.4 35.4 14 34.4 16.5 34.4C18.4 34.4 20.1 35 21.3 36.3C23.4 38.4 23.4 41.3 23.4 41.7V43.4C23.4 46.3 22.3 48 21.3 48.9C19.5 50.7 17.1 50.8 16.6 50.8ZM16.5 38.9C15.3 38.9 14.8 39.4 14.7 39.5C13.9 40.3 13.9 41.6 13.9 41.6V43.3C13.9 46 15.9 46.3 16.5 46.3C17.6 46.3 18.9 45.8 18.9 43.3V41.6C19 40.6 18.6 38.9 16.5 38.9Z" fill="black"/>
<path d="M35.7 59.9C35.7 59.9 35.6 59.9 35.7 59.9C32.8 59.9 28.5 57.9 28.5 52.4V49C28.5 48.7 28.5 45.8 30.6 43.7C31.5 42.8 33.1 41.8 35.6 41.8C37.5 41.8 39.2 42.4 40.4 43.7C42.5 45.8 42.5 48.7 42.5 49.1V52.6C42.5 55.5 41.4 57.2 40.4 58.1C38.7 59.8 36.3 59.9 35.7 59.9ZM35.7 46.2C34.5 46.2 34 46.7 33.9 46.8C33.1 47.6 33.1 48.9 33.1 48.9V52.4C33.1 54.9 34.8 55.3 35.8 55.4C36.9 55.4 38.2 54.9 38.2 52.4V49C38.1 48 37.8 46.2 35.7 46.2Z" fill="black"/>
<path d="M20.1 13.2C19.9 13.2 19.6 13.2 19.4 13.1C19.4 13.1 14.8 11.6 12.4 10.8C11.2 10.4 10.6 9.09997 11 7.99997C11.4 6.79997 12.7 6.19998 13.8 6.59998C15.6 7.19998 18.8 8.29998 20.2 8.69998L35.9 5.29996C37.1 4.99996 38.3 5.79997 38.6 6.99997C38.9 8.19997 38.1 9.39998 36.9 9.69998L20.6 13.2C20.5 13.2 20.3 13.2 20.1 13.2Z" fill="black"/>
<path d="M11.6 40.3C11.2 40.3 10.8 40.2 10.4 39.9L1.10001 33.9C0.100009 33.2 -0.200003 31.8 0.399997 30.8C0.999997 29.8 2.5 29.5 3.5 30.1L12.8 36.1C13.8 36.8 14.1 38.2 13.5 39.2C13.1 39.9 12.4 40.3 11.6 40.3Z" fill="black"/>
</svg>
