<svg xmlns:xlink="http://www.w3.org/1999/xlink" xmlns="http://www.w3.org/2000/svg" stroke-width="0.501" stroke-linejoin="bevel" fill-rule="evenodd" version="1.1" overflow="visible" viewBox="0 0 75 93.75" x="0px" y="0px"><g fill="none" stroke="black" font-family="Times New Roman" font-size="16" transform="scale(1 -1)"><g transform="translate(0 -75)"><g><path d="M 44.141,16.935 C 43.554,19.584 40.22,20.859 37.57,21.884 C 36.475,22.306 35.679,23.195 35.177,23.5 C 34.977,23.622 35.009,23.836 35.221,23.936 C 37.313,24.329 36.014,26.595 37.183,27.599 C 38.475,28.709 40.778,29.018 41.133,29.058 C 41.994,29.152 43.048,27.78 43.939,26.405 C 44.637,25.328 45.236,24.249 45.563,23.871 C 46.371,22.945 47.143,21.341 47.849,20.444 C 48.294,19.878 50.127,18.886 50.898,17.772 C 51.013,17.606 50.93,17.375 50.735,17.32 C 48.846,16.79 46.442,16.765 44.439,16.704 C 44.297,16.699 44.172,16.796 44.141,16.935 Z M 46.087,24.721 C 45.044,26.196 44.702,26.303 44.367,28.337 C 44.338,28.513 44.472,28.675 44.651,28.679 C 46.501,28.724 48.888,29.995 50.848,30.782 C 51.822,31.171 55.584,29.788 56.566,29.818 C 57.053,29.831 59.976,29.882 60.41,28.882 C 60.91,27.743 51.735,16.737 46.087,24.721 Z M 30.667,24.067 C 29.005,24.206 28.54,24.774 27.323,25.724 C 26.586,26.3 24.919,27.449 24.337,28.021 C 23.614,28.732 25.664,32.477 25.874,32.911 C 26.455,34.131 26.624,35.309 27.936,36.283 C 32.326,39.556 33.773,37.965 36.406,39.274 C 38.763,40.446 38.884,41.232 40.546,42.367 C 41.285,42.871 43.739,41.872 44.72,42.176 C 45.43,42.394 45.385,44.367 44.652,44.187 C 43.451,43.893 39.46,42.082 38.049,43.917 C 35.985,46.593 40.987,48.682 40.801,49.574 C 40.622,50.427 38.009,49.061 37.405,47.906 C 35.742,44.713 37.518,41.505 36.52,40.475 C 35.481,39.4 33.316,39.686 32.093,39.55 C 31.562,39.492 28.669,38.146 28.072,39.416 C 27.716,40.167 28.846,44.319 29.054,44.816 C 30.46,48.191 36.292,46.642 36.165,51.6 C 36.125,53.151 35.807,53.247 35.722,53.242 C 35.436,53.224 34.93,52.78 34.232,51.969 C 32.99,50.526 31.277,48.05 29.983,47.827 C 27.61,47.416 24.519,49.251 23.254,47.703 C 22.684,47.003 22.094,45.855 22.24,45.307 L 22.647,45.005 L 23.053,45.197 C 23.641,45.529 24.667,46.195 25.723,46.69 C 26.926,47.254 28.622,47.558 27.936,45.447 C 25.876,39.095 27.424,35.546 22.409,30.007 C 18.531,25.72 11.762,33.082 12.566,37.17 C 13.188,40.328 16.436,36.425 17.711,35.337 L 18.066,35.11 L 18.385,35.674 C 19.34,38.811 7.586,40.146 12.779,46.483 C 13.216,47.011 13.75,46.792 14.055,46.633 C 15.884,45.684 14.508,44.624 15.509,43.451 C 16.08,42.781 17.756,43.128 18.263,42.359 C 19.326,40.745 21.738,37.642 23.494,39.515 C 24.629,40.725 21.564,40.491 20.613,41.459 C 19.756,42.329 19.765,43.447 19.02,43.835 C 16.895,44.937 14.389,45.663 16.004,49.005 C 17.125,51.322 22.429,55.115 25.187,54.785 C 27.102,54.554 26.23,51.149 27.372,51.368 C 27.509,51.395 27.593,51.499 27.678,51.771 C 28.805,55.386 28.762,55.042 31.499,57.156 C 33.861,58.981 39.416,58.021 42.209,58.203 C 44.703,58.365 46.212,53.478 45.78,51.691 C 45.621,51.038 45.106,50.955 44.948,50.11 C 44.9,49.87 44.971,49.769 45.009,49.751 C 45.184,49.686 46.046,49.77 46.212,49.832 C 48.876,50.974 46.173,54.959 46.573,56.465 C 47.256,59.04 52.808,54.559 52.887,54.496 C 52.832,54.54 53.359,53.987 53.12,54.187 C 56.118,51.662 52.541,49.48 51.25,48.071 C 49.397,46.044 50.195,39.241 46.409,39.17 C 44.733,39.137 43.953,39.258 42.576,38.663 C 42.365,38.571 41.255,36.816 40.748,36.61 C 38.946,35.876 37.387,36.072 37.727,35 C 37.918,34.397 38.175,34.53 39.07,34.444 C 42.89,34.082 41.142,36.178 44.274,38.121 C 46.62,39.575 48.341,37.217 50.264,39.794 C 51.572,41.541 50.71,48.89 54.722,50.442 C 58.579,51.935 64.178,39.419 63.22,37.222 C 62.697,36.025 61.398,36.559 60.631,36.668 C 58.495,36.968 58.277,45.892 55.584,42.763 C 54.897,41.966 57.632,40.09 58.348,38.853 C 58.877,37.941 57.311,37.427 56.536,37.261 L 56.476,37.25 L 56.682,37.158 C 58.71,36.365 66,35.273 62.708,31.821 C 61.829,30.904 60.617,30.535 59.366,30.594 C 57.198,30.699 52.881,31.918 51.759,34.091 C 51.237,35.093 51.899,37.741 51.063,37.653 C 49.514,37.489 51.766,32.513 46.263,30.832 C 45.833,30.701 37.685,29.2 37.535,29.235 C 36.812,29.385 35.304,29.953 34.405,30.203 L 34.044,30.268 L 34.084,30.187 C 34.76,28.924 37.159,24.544 33.156,24.068 C 31.927,23.921 31.801,23.971 30.667,24.067 Z" fill="#000000" stroke="none" stroke-width="1.49" stroke-linejoin="round" marker-start="none" marker-end="none" stroke-miterlimit="79.8403193612775"/></g></g></g></svg>
