<svg xmlns="http://www.w3.org/2000/svg" data-name="Layer 1" viewBox="0 0 100 125" x="0px" y="0px"><title>17</title><g data-name="Group"><path data-name="Path" d="M12.6,94.3h4a5.8,5.8,0,0,1,5.8-5.8,5.2,5.2,0,0,1,2.1.4l1.7.7.8-1.7A5.5,5.5,0,0,1,31.8,85a5.3,5.3,0,0,1,5.3,5l.2,2.7,2.5-.9,1.4-.2a4.2,4.2,0,0,1,4.2,4.2V96h4v-.3a8.2,8.2,0,0,0-8.2-8.2h-.5A9.3,9.3,0,0,0,31.8,81a9.1,9.1,0,0,0-7.4,3.7l-2-.2a7.5,7.5,0,0,0-2.6.4A9.4,9.4,0,0,0,11,78.6a9.2,9.2,0,0,0-8.4,5.1l3.6,1.8A5.3,5.3,0,0,1,11,82.6a5.2,5.2,0,0,1,5.1,4.1A10.1,10.1,0,0,0,12.6,94.3Z"/><path data-name="Path" d="M88.1,88.1a5.3,5.3,0,0,1,5.3,5l4-.2a9.3,9.3,0,0,0-9.3-8.8,9.5,9.5,0,0,0-6.3,2.4,10.7,10.7,0,0,0-9.2-5.1,11,11,0,0,0-10.2,7,11.1,11.1,0,0,0-8.9,6.7l3.7,1.5a7,7,0,0,1,6.5-4.3h1.8l.3-1.6a6.9,6.9,0,0,1,13.7,1.5,6.4,6.4,0,0,1-.3,2L83,95.5a8.6,8.6,0,0,0,.5-3.2,7.6,7.6,0,0,0-.1-1.5A5.2,5.2,0,0,1,88.1,88.1Z"/><path data-name="Compound Path" d="M50.1,42a7.9,7.9,0,1,0-7.9-7.9A7.9,7.9,0,0,0,50.1,42Zm0-11.8A3.9,3.9,0,0,1,54,34.1a3.9,3.9,0,0,1-7.8,0A3.9,3.9,0,0,1,50.1,30.2Z"/><path data-name="Compound Path" d="M71.8,61.7l1.3-1.5a14.7,14.7,0,0,0-.9-20.9,16.9,16.9,0,0,0-6.1-3.7c-.4-11.8-5.3-22.8-14.6-32L50.1,2.2,48.7,3.6c-9.3,9.2-14.2,20.2-14.6,32a15.8,15.8,0,0,0-6,3.7,14.7,14.7,0,0,0-1,20.9l1.3,1.5,8.7-7.8a47.1,47.1,0,0,0,5.3,10.5c1.5,2.2,5.1,3.1,8.1,3.1h.1c1.6,0,5.3-.3,6.9-2.5a52.6,52.6,0,0,0,5.6-11.1ZM73,49.8a10.7,10.7,0,0,1-1.6,6.1L64.8,50H65l-.5-.6c.3-1,.5-1.9.7-2.9a49.5,49.5,0,0,0,.8-6.6,21.1,21.1,0,0,1,3.5,2.5A11,11,0,0,1,73,49.8ZM50.1,7.9a49.6,49.6,0,0,1,5.4,6.9,13.5,13.5,0,0,1-10.8,0A49.6,49.6,0,0,1,50.1,7.9ZM42.7,18.3a17.6,17.6,0,0,0,7.4,1.6,17.3,17.3,0,0,0,7.4-1.6,42,42,0,0,1,3.8,27.4c-.2.7-.3,1.4-.5,2.2a20.2,20.2,0,0,1-21.4,0c-.1-.7-.3-1.4-.4-2.1A40.5,40.5,0,0,1,42.7,18.3Zm-12,24a21.1,21.1,0,0,1,3.5-2.5,39.6,39.6,0,0,0,.9,6.8,13.1,13.1,0,0,0,.6,2.7l-.4.6h.1l-6.6,5.9A11,11,0,0,1,30.7,42.3ZM54.2,62.7a7.4,7.4,0,0,1-4.3.8c-2.4-.2-3.9-.9-4.2-1.3a45,45,0,0,1-4.6-9,23.4,23.4,0,0,0,18,0A50.3,50.3,0,0,1,54.2,62.7Z"/><rect data-name="Path" x="48.1" y="72.9" width="4" height="10.54"/><rect data-name="Path" x="57.4" y="70.1" width="4" height="8.67"/><rect data-name="Path" x="38.8" y="70.1" width="4" height="8.67"/></g>></svg>
